<?xml version="1.0" encoding="UTF-8"?>
<svg id="Layer_2" data-name="Layer 2" xmlns="http://www.w3.org/2000/svg" viewBox="0 0 327.03 327.03">
  <defs>
    <style>
      .cls-1 {
        fill: #475993;
        stroke-width: 0px;
      }
    </style>
  </defs>
  <g id="Layer_1-2" data-name="Layer 1">
    <path class="cls-1" d="m282.96,0H44.07C19.73,0,0,19.73,0,44.07v238.89c0,24.34,19.73,44.07,44.07,44.07h117.82l.2-116.86h-30.36c-3.95,0-7.15-3.19-7.16-7.14l-.15-37.67c-.02-3.96,3.2-7.19,7.16-7.19h30.31v-36.4c0-42.24,25.8-65.24,63.48-65.24h30.92c3.95,0,7.16,3.21,7.16,7.16v31.76c0,3.96-3.21,7.16-7.16,7.16h-18.98c-20.49.01-24.46,9.75-24.46,24.04v31.51h45.03c4.29,0,7.62,3.75,7.11,8l-4.47,37.67c-.43,3.61-3.48,6.32-7.11,6.32h-40.36l-.2,116.86h70.11c24.34,0,44.07-19.73,44.07-44.07V44.07c0-24.34-19.73-44.07-44.07-44.07h0Z"/>
  </g>
</svg>