<?xml version="1.0" encoding="UTF-8"?>
<svg id="Layer_2" data-name="Layer 2" xmlns="http://www.w3.org/2000/svg" viewBox="0 0 2488.81 2352.44">
  <defs>
    <style>
      .cls-1 {
        fill: #4285f4;
      }

      .cls-1, .cls-2, .cls-3, .cls-4, .cls-5, .cls-6 {
        stroke-width: 0px;
      }

      .cls-2 {
        fill: #ea4335;
      }

      .cls-3 {
        fill: none;
      }

      .cls-4 {
        fill: #c5221f;
      }

      .cls-5 {
        fill: #34a853;
      }

      .cls-6 {
        fill: #fbbc04;
      }
    </style>
  </defs>
  <g id="svg60">
    <path class="cls-3" d="m353.14,0h1782.53c195.04,0,353.14,158.1,353.14,353.14v1646.17c0,195.04-158.1,353.14-353.14,353.14H353.14c-195.04,0-353.14-158.1-353.14-353.14V353.14C0,158.1,158.1,0,353.14,0Z"/>
    <g id="g18">
      <path id="path8" class="cls-1" d="m272.95,2019.82h357.9v-869.2L119.56,767.17v1099.28c.03,84.69,68.7,153.36,153.39,153.36Z"/>
      <path id="path10" class="cls-5" d="m1857.93,2019.82h357.93c84.72,0,153.39-68.67,153.39-153.39V767.14l-511.32,383.48v869.2Z"/>
      <path id="path12" class="cls-6" d="m1857.93,486.02v664.6l511.29-383.45v-204.46c0-127.05-103.01-230.06-230.09-230.06-49.78,0-98.2,16.16-138.03,46.03l-143.18,107.33Z"/>
      <path id="path14" class="cls-2" d="m630.88,1150.62V486.02l613.51,460.12,613.51-460.14v664.63l-613.51,460.12-613.51-460.12Z"/>
      <path id="path16" class="cls-4" d="m119.59,562.69v204.46l511.29,383.48V486.02l-143.18-107.36c-101.64-76.24-245.85-55.64-322.09,46-29.9,39.83-46.03,88.27-46.03,138.03Z"/>
    </g>
  </g>
</svg>