<?xml version="1.0" encoding="UTF-8"?>
<svg id="Layer_2" data-name="Layer 2" xmlns="http://www.w3.org/2000/svg" viewBox="0 0 2499.67 2371.94">
  <defs>
    <style>
      .cls-1 {
        fill: #fdfefe;
      }

      .cls-1, .cls-2, .cls-3 {
        stroke-width: 0px;
      }

      .cls-2 {
        fill: #0172b1;
      }

      .cls-4 {
        fill: #fff;
        stroke: #0180c7;
        stroke-miterlimit: 54.33;
        stroke-width: 10.87px;
      }

      .cls-3 {
        fill: #0180c7;
      }
    </style>
  </defs>
  <g id="Layer_1-2" data-name="Layer 1">
    <path class="cls-4" d="m358.57,5.43h1782.53c195.04,0,353.14,158.1,353.14,353.14v1646.17c0,195.04-158.1,353.14-353.14,353.14H358.57c-195.04,0-353.14-158.1-353.14-353.14V358.57C5.43,163.53,163.53,5.43,358.57,5.43Z"/>
    <path class="cls-3" d="m757.89,2369.83c-148.32,0-297.18,4.89-445.5-.54-175.48-7.06-309.67-154.29-309.67-329.78,0-566.65,1.09-1133.3,0-1700.49C2.72,145.06,154.29,9.78,328.69,4.89c182.55-4.89,365.63-1.09,548.72-1.09,3.26,0,7.61-1.63,9.24,3.8-1.09,9.78-10.87,10.87-16.84,14.67-107.57,63.02-205.91,138.54-288.49,231.98-136.37,154.29-230.9,331.41-262.95,537.31-56.5,363.46,57.05,672.05,314.02,929.57,45.64,46.18,51.61,82.04,15.21,143.97-44.01,74.43-110.83,124.96-182,171.14-7.61,4.35-15.21,9.78-22.82,14.67-11.41,9.78-4.35,14.67,5.43,19.02,2.17,4.89,4.89,9.24,8.15,13.58,62.48,55.42,121.7,114.63,183.09,171.14,28.79,26.62,57.59,54.33,85.3,82.04,11.41,10.32,30.42,13.58,33.14,33.14Z"/>
    <path class="cls-2" d="m757.89,2369.83c-2.72-19.02-21.73-22.27-33.14-33.68-27.71-28.25-56.5-55.42-85.3-82.04-61.39-56.5-120.61-115.72-183.09-171.14-3.26-4.35-5.98-8.69-8.15-13.58,138.54,27.16,273.82,8.69,406.92-32.05,45.09-13.58,90.19-27.16,135.82-38.57,30.97-8.15,63.56-6.52,93.45,4.35,344.45,118.44,684.54,107.57,1019.21-39.12,136.37-60.31,260.78-145.06,366.18-251,5.43-5.43,9.24-13.58,19.02-14.13,4.89,7.61,2.17,15.76,2.17,23.9v317.82c1.09,181.46-144.51,329.23-325.97,330.86h-2.72c-195.58,1.09-391.17,0-586.75,0h-785.05c-10.87-1.09-21.73-1.63-32.6-1.63h0Z"/>
    <path class="cls-3" d="m842.64,1153.95c82.04,0,159.18-.54,235.79,0,42.92.54,66.28,18.47,70.63,52.7,4.89,42.92-20.1,71.71-66.82,72.26-88.01,1.09-175.48.54-263.5.54-25.53,0-50.53,1.09-76.06-.54-31.51-1.63-62.48-8.15-77.69-40.75s-4.35-61.93,16.3-88.56c83.67-106.48,167.88-213.51,252.09-320,4.89-6.52,9.78-13.04,14.67-19.02-5.43-9.24-13.04-4.89-19.56-5.43-58.68-.54-117.89,0-176.57-.54-13.58,0-27.16-1.63-40.2-4.35-30.97-7.06-49.98-38.03-42.92-68.45,4.89-20.65,21.19-37.49,41.83-42.38,13.04-3.26,26.62-4.89,40.2-4.89,96.71-.54,193.95-.54,290.66,0,17.39-.54,34.23,1.63,51.07,5.98,36.94,12.5,52.7,46.72,38.03,82.58-13.04,30.97-33.68,57.59-54.33,84.21-71.17,90.73-142.34,180.92-213.51,270.56-5.98,7.06-11.41,14.13-20.1,26.08h0Z"/>
    <path class="cls-3" d="m1472.86,868.18c13.04-16.84,26.62-32.6,48.9-36.94,42.92-8.69,83.12,19.02,83.67,62.48,1.63,108.66,1.09,217.32,0,325.97,0,28.25-18.47,53.24-45.09,61.39-27.16,10.32-58.13,2.17-76.06-21.19-9.24-11.41-13.04-13.58-26.08-3.26-49.44,40.2-105.4,47.27-165.7,27.71-96.71-31.51-136.37-107.03-147.23-198.84-11.41-99.42,21.73-184.17,110.83-236.33,73.89-44.01,148.86-40.2,216.77,19.02h0Zm-192.32,198.3c1.09,23.9,8.69,46.72,22.82,65.74,29.34,39.12,85.3,47.27,124.96,17.93,6.52-4.89,12.5-10.87,17.93-17.93,30.42-41.29,30.42-109.2,0-150.49-15.21-21.19-39.12-33.68-64.65-34.23-59.76-3.8-101.6,42.38-101.05,118.98Zm568.82,3.26c-4.35-139.63,87.47-243.94,217.86-247.74,138.54-4.35,239.59,88.56,243.94,224.38,4.35,137.45-79.86,234.7-209.71,247.74-141.8,14.13-254.26-88.56-252.09-224.38h0Zm136.37-13.04c-1.09,27.16,7.06,53.79,23.36,76.06,29.88,39.12,85.84,46.72,124.96,16.3,5.98-4.35,10.87-9.78,15.76-15.21,31.51-41.29,31.51-110.83.54-152.12-15.21-20.65-39.12-33.68-64.65-34.23-58.68-3.26-99.97,41.29-99.97,109.2Zm-184.17-95.08c0,84.21.54,168.42,0,252.63.54,38.57-29.88,70.63-68.45,71.71-6.52,0-13.58-.54-20.1-2.17-27.16-7.06-47.81-35.86-47.81-70.08v-431.91c0-25.53-.54-50.53,0-76.06.54-41.83,27.16-69,67.37-69,41.29-.54,69,26.62,69,70.08.54,84.75,0,170.05,0,254.8Z"/>
    <path class="cls-1" d="m1280.53,1066.48c-.54-76.6,41.29-122.78,100.51-119.52,25.53,1.09,49.44,13.58,64.65,34.77,30.42,40.75,30.42,109.2,0,150.49-29.34,39.12-85.3,47.27-124.96,17.93-6.52-4.89-12.5-10.87-17.93-17.93-13.58-19.02-21.19-41.83-22.27-65.74h0Zm705.19-9.78c0-67.37,41.29-112.46,99.97-109.2,25.53.54,49.44,13.58,64.65,34.23,30.97,41.29,30.97,111.37-.54,152.12-30.42,38.57-86.93,45.09-125.5,14.67-5.98-4.35-10.87-9.78-15.21-15.76-16.3-22.27-23.9-48.9-23.36-76.06Z"/>
  </g>
</svg>